<?xml version="1.0" encoding="utf-8"?>
<!-- Generator: Adobe Illustrator 25.4.1, SVG Export Plug-In . SVG Version: 6.00 Build 0)  -->
<svg version="1.1" id="Layer_1" xmlns="http://www.w3.org/2000/svg" xmlns:xlink="http://www.w3.org/1999/xlink" x="0px" y="0px"
	 viewBox="0 0 32 32" style="enable-background:new 0 0 32 32;" xml:space="preserve">
<style type="text/css">
	.st0{fill:#236BF5;}
</style>
<g id="nav">
	<path class="st0" d="M31.4,16.2c0.5,3-2.2,4.8-4.9,5c-1.7,3.5-7.8,5.9-13,3.4c-2.2,0.3-3.5-0.2-4.4-1.3c1.9-2.5,7.7-6.9,14.8-4.6
		c3.8,1.2,4.8-1.7,3.8-2.7c-3.6-4.1-11.6-0.4-11.9-0.1C19,10.9,30.3,9.6,31.4,16.2z M20.5,10.6c0,0-2.6-0.9-6.2,0.7
		c-0.2,0-0.3-0.1-0.4-0.2c3.5-2.3,6.6-3.3,9.2-2.9C21.5,6.3,13.9,5,9.5,9.3c-5.4-1-9.1,3.5-8.9,7.7s4.8,6.8,7.4,6.1
		c0.1,0,0.1,0,0.2,0C8.7,20.3,11,13.9,20.5,10.6L20.5,10.6z"/>
</g>
</svg>
